<?xml version="1.0" encoding="iso-8859-1"?>
<!-- Generator: Adobe Illustrator 16.0.0, SVG Export Plug-In . SVG Version: 6.00 Build 0)  -->
<!DOCTYPE svg PUBLIC "-//W3C//DTD SVG 1.1//EN" "http://www.w3.org/Graphics/SVG/1.1/DTD/svg11.dtd">
<svg version="1.1" id="Capa_1" xmlns="http://www.w3.org/2000/svg" xmlns:xlink="http://www.w3.org/1999/xlink" x="0px" y="0px"
	 width="488.936px" height="488.936px" viewBox="0 0 488.936 488.936" style="enable-background:new 0 0 488.936 488.936;"
	 xml:space="preserve">
<g>
	<g>
		<path d="M381.16,111.948H107.376c-6.468,0-12.667,2.819-17.171,7.457c-4.504,4.649-6.934,11.014-6.738,17.477l9.323,307.69
			c0.39,12.92,10.972,23.312,23.903,23.312h20.136v-21.012c0-24.121,19.368-44.049,43.488-44.049h127.896
			c24.131,0,43.893,19.928,43.893,44.049v21.012h19.73c12.933,0,23.52-10.346,23.913-23.268l9.314-307.7
			c0.195-6.462-2.234-12.863-6.738-17.513C393.821,114.767,387.634,111.948,381.16,111.948z"/>
		<path d="M309.166,435.355H181.271c-6.163,0-11.915,4.383-11.915,11.516v30.969c0,6.672,5.342,11.096,11.915,11.096h127.895
			c6.323,0,11.366-4.773,11.366-11.096v-30.969C320.532,440.561,315.489,435.355,309.166,435.355z"/>
		<path d="M427.696,27.106C427.696,12.138,415.563,0,400.591,0H88.344C73.372,0,61.239,12.138,61.239,27.106v30.946
			c0,14.973,12.133,27.106,27.105,27.106H400.59c14.973,0,27.105-12.133,27.105-27.106L427.696,27.106L427.696,27.106z"/>
	</g>
</g>
<g>
</g>
<g>
</g>
<g>
</g>
<g>
</g>
<g>
</g>
<g>
</g>
<g>
</g>
<g>
</g>
<g>
</g>
<g>
</g>
<g>
</g>
<g>
</g>
<g>
</g>
<g>
</g>
<g>
</g>
</svg>
